<svg xmlns="http://www.w3.org/2000/svg" data-name="Layer 1" viewBox="0 0 32 40" x="0px" y="0px">
    <title>Venue</title>
    <path d="M25.16,14.81h0c0-2.29-5.76-2.9-9.16-2.9s-9.16.61-9.16,2.9h0v7.63c0,2.3,5.76,2.91,9.16,2.91s9.16-.61,9.16-2.91V14.81ZM16,13.35c4.84,0,7.34,1,7.68,1.45a2.82,2.82,0,0,1-1.17.63c-1.32-1-4.23-1.35-6.51-1.35s-5.19.36-6.51,1.35a4.11,4.11,0,0,1-1.2-.59h0C8.53,14.39,11,13.35,16,13.35Zm3.21,2.74h-.09a31.08,31.08,0,0,1-6.25,0h-.08L11.9,16h0A16.93,16.93,0,0,1,16,15.53a16.93,16.93,0,0,1,4.14.45h-.05Zm-4.64,7.78V23.4a1.31,1.31,0,1,1,2.61,0v.48L16,23.9C15.5,23.9,15,23.89,14.57,23.87Zm4.07-.08V23.4a2.76,2.76,0,0,0-5.52,0v.37c-3.1-.29-4.68-1-4.83-1.33V16.51l.15.06,0,.06,1,.31a24.7,24.7,0,0,0,6.56.78c.63,0,1.25,0,1.85-.06a21.45,21.45,0,0,0,4.71-.72l1-.31,0-.06.15-.06V22.4C23.56,22.76,21.9,23.51,18.64,23.79Z"/>
    <polygon points="11.94 9.22 13.5 8.17 11.4 6.76 11.4 11.23 11.94 11.23 11.94 9.22"/>
    <polygon points="15.49 9.22 17.05 8.17 14.95 6.76 14.95 11.23 15.49 11.23 15.49 9.22"/>
    <polygon points="19.04 9.22 20.6 8.17 18.5 6.76 18.5 11.23 19.04 11.23 19.04 9.22"/>
</svg>